<?xml version="1.0" standalone="no"?>
<!DOCTYPE svg PUBLIC "-//W3C//DTD SVG 20010904//EN"
 "http://www.w3.org/TR/2001/REC-SVG-20010904/DTD/svg10.dtd">
<svg version="1.0" xmlns="http://www.w3.org/2000/svg"
 width="1150.000000pt" height="1177.000000pt" viewBox="0 0 1150.000000 1177.000000"
 preserveAspectRatio="xMidYMid meet">

<g transform="translate(0.000000,1177.000000) scale(0.100000,-0.100000)"
fill="#000000" stroke="none">
<path d="M5487 11249 c-49 -4 -90 -9 -92 -11 -2 -2 99 -4 223 -4 125 -1 263
-6 307 -12 200 -27 275 -42 344 -66 87 -30 118 -34 47 -5 -180 73 -571 119
-829 98z"/>
<path d="M5358 11223 c7 -3 16 -2 19 1 4 3 -2 6 -13 5 -11 0 -14 -3 -6 -6z"/>
<path d="M6465 11090 c3 -5 14 -10 23 -10 15 0 15 2 2 10 -20 13 -33 13 -25 0z"/>
<path d="M5500 11050 c-299 -42 -514 -121 -755 -278 -144 -94 -235 -170 -423
-356 -103 -100 -130 -136 -280 -361 -91 -137 -169 -252 -172 -255 -8 -7 -204
-302 -209 -315 -2 -5 -7 -12 -10 -15 -27 -22 -103 -161 -120 -216 -38 -129
-79 -340 -102 -527 -17 -141 -7 -426 20 -547 40 -181 105 -338 181 -438 22
-29 40 -55 40 -58 0 -24 -192 174 -208 216 -3 8 -18 33 -33 55 -59 87 -128
281 -161 453 -19 96 -23 151 -23 307 0 196 13 301 56 459 10 38 17 71 15 73
-9 9 -549 -181 -731 -257 -55 -23 -111 -45 -125 -50 -78 -24 -548 -256 -611
-301 -15 -10 -29 -19 -32 -19 -15 0 -200 -136 -244 -179 -52 -50 -53 -53 -53
-109 0 -83 37 -529 61 -727 96 -814 248 -1497 492 -2220 68 -200 166 -456 233
-610 7 -16 22 -52 32 -80 l20 -50 142 -3 c133 -2 142 -1 135 15 -43 101 -27
325 35 494 28 78 118 257 143 285 7 7 43 50 82 96 59 71 116 127 273 268 16
14 52 45 82 70 29 25 63 54 74 65 12 11 44 38 71 60 28 21 52 42 55 45 3 3 84
68 180 145 198 158 380 321 416 374 14 20 52 72 85 116 163 218 234 466 231
808 -1 53 2 97 6 97 30 -1 122 -228 151 -373 28 -139 27 -135 67 -402 4 -27 7
-68 6 -90 -1 -22 1 -33 4 -25 3 8 13 31 21 50 9 19 20 51 25 70 5 19 13 51 18
70 27 108 36 462 15 633 -5 45 20 31 48 -28 107 -216 168 -492 167 -750 0
-214 -25 -332 -137 -650 -63 -179 -73 -206 -133 -331 -46 -98 -63 -124 -79
-124 -16 0 -21 9 -26 58 -4 31 -11 81 -16 111 -5 30 -9 69 -9 87 0 18 -5 45
-10 60 -10 26 -11 26 -31 8 -30 -27 -229 -313 -304 -436 -281 -464 -331 -556
-430 -796 l-43 -102 82 -2 c44 0 86 -2 91 -3 6 -1 213 -5 460 -9 248 -4 488
-9 535 -11 47 -2 273 -7 503 -11 230 -3 417 -8 415 -9 -2 -2 -160 -8 -353 -14
-192 -6 -415 -13 -495 -16 -80 -3 -282 -9 -450 -15 -168 -5 -370 -12 -450 -15
-80 -3 -296 -10 -480 -15 -447 -14 -901 -29 -1030 -35 -117 -5 -357 -12 -680
-20 -368 -9 -513 -16 -570 -27 -161 -31 -314 -148 -398 -304 -12 -23 -115
-320 -229 -660 l-207 -619 0 -97 c-1 -92 1 -99 36 -166 45 -86 69 -114 128
-151 91 -58 136 -66 340 -65 177 2 1059 28 1280 39 58 2 204 7 325 10 121 3
447 13 724 21 l505 16 30 -34 c16 -18 50 -55 75 -83 172 -192 451 -476 593
-605 26 -23 45 -47 41 -53 -3 -6 -1 -7 6 -3 7 5 28 -9 54 -36 23 -23 56 -53
72 -66 17 -13 50 -42 75 -66 25 -23 97 -85 160 -136 63 -52 117 -97 120 -100
3 -3 41 -35 85 -70 44 -35 87 -70 95 -77 22 -20 229 -184 275 -218 67 -50 105
-75 117 -75 6 0 38 17 72 37 61 38 127 73 134 73 3 0 -1 -6 -7 -13 -6 -8 -7
-18 -3 -22 4 -5 -1 -5 -11 -2 -11 4 -16 3 -12 -4 4 -6 13 -8 21 -5 9 3 14 -1
14 -11 0 -13 3 -14 12 -5 7 7 23 13 38 13 19 1 21 2 5 6 -11 2 -30 6 -43 9
-22 4 -22 24 -1 24 6 0 7 -5 3 -11 -4 -8 1 -9 17 -4 32 10 32 11 21 31 -6 11
-11 13 -16 5 -9 -14 -36 -15 -36 -1 0 6 4 10 10 10 17 0 272 164 543 350 60
41 86 45 64 9 -10 -16 -9 -22 3 -30 13 -9 12 -10 -2 -5 -21 6 -48 -2 -48 -15
0 -13 51 0 69 17 12 11 12 16 1 28 -10 14 -9 16 6 16 32 1 57 26 46 46 -9 16
-10 16 -16 -3 -4 -12 -16 -23 -26 -26 -41 -11 -28 12 28 49 31 21 62 42 67 46
13 11 130 98 159 118 52 36 234 177 265 205 18 16 37 29 42 27 5 -1 9 2 9 6 0
5 30 33 68 63 37 29 70 59 75 66 5 7 25 10 57 7 45 -4 49 -3 45 16 -2 11 1 20
7 20 5 0 8 -7 4 -15 -4 -10 1 -14 17 -14 12 1 31 -2 41 -6 14 -6 17 -5 12 3
-4 7 -3 12 3 12 5 0 13 -4 16 -10 7 -12 25 -13 25 -2 0 12 -48 30 -57 21 -9
-9 -73 27 -73 41 0 5 10 16 21 24 12 8 45 38 74 65 29 28 55 51 58 51 3 0 8
-7 11 -16 5 -12 2 -15 -11 -10 -13 5 -11 0 6 -18 22 -23 26 -24 41 -11 9 8 22
15 28 15 7 0 12 5 12 10 0 6 -7 10 -15 10 -8 0 -15 5 -15 10 0 6 3 10 8 10 10
-1 48 -30 38 -30 -4 0 0 -7 8 -16 11 -10 21 -12 32 -6 13 7 9 13 -20 33 -42
28 -41 45 2 42 17 -2 34 2 37 7 3 6 17 7 31 4 15 -4 24 -2 24 6 0 6 4 8 10 5
5 -3 7 0 5 7 -10 26 -85 50 -85 27 0 -6 -9 -8 -21 -4 -15 5 -22 2 -26 -14 -4
-16 -11 -20 -24 -16 -11 4 -19 2 -19 -4 0 -6 5 -11 11 -11 5 0 7 -4 4 -10 -3
-5 -16 -10 -28 -10 -16 0 -18 -3 -8 -9 8 -5 9 -11 3 -15 -5 -3 -15 1 -22 9
-10 13 -8 19 16 37 16 13 58 51 94 85 64 62 100 79 100 47 0 -13 -3 -14 -14
-5 -11 9 -18 7 -34 -13 -10 -14 -22 -22 -26 -19 -3 3 -6 2 -6 -4 0 -5 32 -10
75 -10 41 0 72 3 69 8 -3 5 0 9 5 9 6 0 11 -5 11 -11 0 -24 25 0 31 30 6 27 3
34 -15 41 l-21 9 23 0 c23 1 30 15 12 26 -5 3 -10 13 -10 22 0 13 8 15 45 10
25 -4 47 -2 50 3 3 6 15 10 25 10 11 0 35 9 54 19 25 15 50 19 96 17 33 -1 63
2 67 6 3 5 12 7 21 3 8 -3 19 -1 22 6 9 14 100 25 100 12 0 -6 22 -7 57 -2 45
6 59 5 68 -7 9 -13 11 -12 11 5 0 14 -7 21 -21 21 -18 1 -19 1 -2 11 13 8 21
6 33 -5 11 -12 12 -16 3 -16 -10 0 -10 -3 -2 -11 15 -15 34 -3 26 16 -3 8 0
15 6 15 6 0 11 -5 11 -11 0 -6 9 -9 19 -6 13 3 18 1 14 -8 -3 -10 2 -12 17 -8
16 4 18 8 8 14 -7 5 3 6 24 2 45 -7 117 5 99 17 -8 4 -9 10 -3 14 5 3 13 -1
16 -10 5 -12 16 -15 45 -12 22 2 38 0 35 -3 -2 -4 24 -5 59 -3 131 6 343 16
357 16 8 0 22 2 30 5 17 6 87 14 113 13 9 -1 34 -2 55 -2 20 -1 70 2 110 6 58
7 72 6 72 -5 0 -12 2 -12 9 0 6 10 19 12 44 7 42 -8 76 2 55 16 -9 7 -8 8 5 4
10 -3 25 -6 33 -6 9 0 12 -5 8 -12 -4 -6 -3 -9 2 -6 5 3 45 9 89 13 44 4 83 9
86 11 4 2 20 -1 36 -7 33 -14 75 -12 85 5 6 8 8 8 8 -1 0 -7 9 -13 21 -13 11
0 17 -4 14 -10 -4 -6 17 -10 54 -10 34 0 61 4 61 8 0 11 104 12 111 0 3 -5 22
-5 47 0 23 6 40 6 37 2 -3 -4 11 -8 31 -8 19 0 33 3 30 6 -3 3 -1 11 5 18 6 8
9 21 5 29 -3 8 -1 15 3 15 5 0 12 -6 14 -12 4 -8 6 -6 7 5 4 26 13 53 32 94 6
12 8 29 5 37 -3 8 0 22 8 29 7 8 16 34 20 60 4 25 16 55 26 66 20 22 25 36 9
26 -5 -3 -10 -2 -10 4 0 5 4 12 9 15 9 6 37 96 34 108 -1 3 4 12 12 18 8 7 15
18 15 24 0 6 -5 4 -10 -4 -6 -9 -10 -10 -10 -3 0 6 5 15 10 18 6 3 10 17 10
31 0 17 4 23 12 18 7 -5 9 -2 6 8 -4 8 3 30 14 48 11 18 17 41 15 52 -3 10 -2
18 3 18 4 0 12 18 18 40 8 34 7 42 -7 50 -14 8 -14 9 4 10 15 0 24 11 33 40 6
22 12 46 12 54 0 8 5 27 12 43 6 15 10 34 9 42 -1 7 2 10 8 7 10 -7 22 22 27
63 1 14 7 34 12 45 5 12 17 51 26 88 9 37 21 80 28 95 6 16 12 33 14 38 1 6
10 37 19 70 9 33 20 62 26 63 6 3 5 9 -2 18 -7 8 -7 14 -2 14 6 0 13 18 17 39
3 22 12 41 18 44 10 3 10 7 -1 20 -11 15 -11 17 2 17 11 0 20 22 31 78 9 42
30 118 47 167 16 50 31 95 32 102 2 7 6 15 9 19 4 3 4 12 1 20 -3 8 -1 14 5
14 5 0 13 17 17 38 4 20 10 42 14 47 5 6 13 30 19 55 10 39 9 47 -6 59 -14 11
-14 13 -1 8 25 -8 37 5 44 54 5 32 3 48 -7 56 -21 18 -388 21 -388 4 0 -5 -9
-11 -19 -14 -13 -3 -18 0 -15 8 4 10 -9 11 -58 7 -35 -3 -90 -6 -123 -6 -33
-1 -63 -5 -68 -11 -4 -6 -11 -3 -18 8 -9 15 -13 16 -27 5 -13 -11 -14 -11 -7
1 7 12 1 13 -31 6 -21 -4 -64 -8 -94 -10 -30 -1 -63 -5 -73 -9 -9 -5 -23 -4
-30 2 -20 16 -70 22 -107 13 -25 -7 -29 -9 -12 -10 13 -1 21 -5 17 -11 -4 -6
-15 -5 -30 2 -13 6 -23 14 -20 17 2 4 -6 8 -18 8 -17 2 -19 0 -7 -7 11 -7 8
-10 -13 -10 -16 0 -26 4 -23 9 3 5 -3 11 -14 14 -13 3 -18 1 -13 -6 6 -10 -12
-7 -51 9 -12 4 -17 4 -13 -2 4 -7 -21 -9 -65 -8 -39 1 -66 -1 -59 -6 7 -4 22
-5 32 -3 11 3 19 0 19 -6 0 -7 -5 -9 -11 -5 -6 4 -28 -12 -50 -36 -25 -27 -39
-37 -39 -26 0 9 5 16 12 16 6 0 8 3 5 7 -4 3 5 15 20 25 20 13 23 18 11 18 -9
0 -20 -5 -23 -10 -4 -6 -12 -7 -18 -4 -7 4 -9 4 -5 0 3 -4 -2 -28 -13 -53 -10
-24 -19 -47 -19 -49 0 -10 29 -3 33 9 3 9 7 9 20 -1 21 -18 197 -14 204 4 3 8
12 10 26 5 12 -4 85 -8 162 -10 77 -1 141 -4 143 -5 2 -2 -106 -7 -240 -11
-273 -8 -334 -11 -348 -20 -6 -3 -10 -2 -10 3 0 5 -11 8 -25 7 -14 -2 -23 1
-19 6 3 5 1 9 -5 9 -5 0 -11 -5 -13 -10 -2 -7 -33 -10 -80 -8 l-77 3 22 47
c12 27 27 48 34 48 7 0 10 6 7 14 -3 7 8 42 24 77 16 35 37 83 47 107 15 34
23 42 44 42 20 0 27 5 28 20 2 18 0 19 -13 5 -30 -30 -33 -14 -8 43 14 31 37
85 51 120 14 34 29 65 34 68 5 3 9 13 9 22 0 9 10 37 22 62 12 25 22 47 23 50
7 27 20 63 36 100 42 96 54 120 62 120 4 0 7 5 7 11 0 5 -5 7 -10 4 -6 -4 -5
5 2 19 12 27 34 37 24 11 -5 -13 -2 -14 17 -4 12 7 23 12 25 11 9 -7 32 0 27
8 -3 5 -15 6 -29 1 -18 -7 -25 -5 -36 12 -8 14 -9 22 -2 25 6 2 9 9 6 16 -3 8
1 20 9 27 7 8 12 20 9 27 -2 7 2 10 12 6 9 -3 13 -10 10 -15 -3 -5 0 -9 5 -9
16 0 13 27 -3 33 -15 6 -11 47 5 47 5 0 6 7 3 15 -4 10 0 15 12 15 13 0 15 3
7 8 -10 6 -9 17 0 50 7 24 17 39 22 35 4 -4 5 -2 1 4 -8 14 24 113 36 113 4 0
5 6 3 13 -3 6 9 53 25 102 17 50 40 126 51 170 12 44 24 82 27 85 4 3 8 14 9
25 1 11 6 36 11 55 31 108 126 490 148 594 49 230 95 461 104 526 6 36 17 101
25 145 24 133 26 126 -77 230 -51 50 -138 125 -193 167 -102 76 -192 138 -201
138 -2 0 -27 16 -54 35 -27 19 -53 35 -56 35 -3 0 -39 20 -78 45 -40 25 -76
45 -80 45 -3 0 -25 12 -47 26 -57 36 -472 244 -477 240 -2 -3 23 -64 56 -138
33 -73 66 -151 72 -173 7 -22 16 -44 20 -50 10 -13 97 -291 104 -330 3 -16 10
-48 16 -70 33 -127 63 -295 90 -505 21 -158 29 -324 30 -565 l0 -250 -43 45
c-23 25 -69 75 -101 113 -32 37 -61 66 -63 64 -2 -2 7 -40 20 -83 38 -122 46
-163 67 -332 27 -218 34 -408 24 -650 -6 -167 -9 -196 -16 -152 -10 67 -27
184 -38 265 -12 89 -117 639 -139 730 -6 22 -17 72 -26 110 -42 181 -108 368
-157 443 -15 24 -28 45 -28 47 0 2 71 -50 158 -115 86 -65 161 -116 165 -113
7 4 2 237 -7 308 -2 17 -7 62 -11 100 -4 39 -18 129 -32 200 -14 72 -29 148
-33 170 -11 61 -27 119 -71 250 -43 130 -42 128 -88 228 -17 37 -31 70 -31 73
0 14 -142 287 -181 349 -14 22 -29 47 -32 55 -4 8 -16 29 -27 45 -11 17 -23
37 -27 46 -5 9 -24 36 -43 59 -19 24 -48 64 -65 90 -136 216 -410 527 -599
680 -30 25 -55 51 -56 59 0 10 -184 233 -245 297 -5 6 -48 52 -95 103 -47 51
-115 112 -151 136 -170 112 -496 250 -771 326 -26 7 -44 17 -40 20 4 4 43 20
87 34 44 15 86 30 94 34 13 8 -97 49 -324 121 -55 18 -183 59 -285 91 -102 33
-219 67 -260 76 -88 18 -385 26 -480 13z m457 -264 c106 -25 108 -36 15 -81
-42 -20 -106 -58 -142 -83 -75 -53 -84 -61 -92 -83 -6 -14 16 -17 195 -23 362
-13 606 -53 868 -142 90 -30 177 -61 194 -69 205 -91 264 -120 324 -159 115
-74 104 -82 -139 -91 -80 -2 -153 -5 -162 -6 -9 0 -22 -7 -28 -14 -9 -11 -3
-16 32 -25 24 -6 58 -17 76 -25 18 -8 38 -15 43 -15 11 0 204 -81 249 -105
180 -94 256 -142 393 -248 190 -147 366 -325 519 -528 263 -348 505 -797 625
-1159 36 -107 41 -131 63 -270 18 -108 18 -126 6 -138 -13 -13 -25 -6 -97 51
-103 82 -284 191 -409 245 -96 41 -160 59 -160 44 0 -4 21 -37 47 -72 111
-152 238 -376 312 -550 72 -168 150 -429 195 -652 82 -408 111 -784 85 -1123
-10 -134 -20 -185 -36 -185 -5 0 -22 21 -39 48 -36 55 -154 252 -154 257 0 7
-132 207 -167 254 -72 94 -116 142 -123 134 -4 -4 -2 -43 6 -86 53 -303 44
-1045 -16 -1201 -11 -29 -36 -32 -322 -42 l-196 -6 -15 23 c-8 13 -18 60 -23
104 -9 96 -7 88 -28 205 -96 545 -237 991 -445 1409 -56 112 -78 152 -115 206
-28 40 -46 62 -31 36 4 -8 10 -30 12 -49 2 -19 8 -42 12 -51 13 -25 70 -230
86 -313 57 -282 74 -389 105 -668 16 -144 24 -454 11 -446 -6 4 -11 20 -11 35
0 34 -38 213 -84 396 -19 77 -44 181 -56 230 -66 278 -283 829 -381 966 -10
15 -19 30 -19 35 0 4 -11 22 -25 40 -14 18 -25 35 -25 39 0 8 -169 233 -233
310 -127 154 -303 329 -461 460 -26 22 -54 46 -61 53 -8 6 -18 12 -24 12 -6 0
-11 3 -11 8 0 4 -18 20 -40 36 -71 53 -59 59 103 54 119 -4 154 -9 217 -30 93
-32 112 -36 117 -22 10 28 -256 258 -401 345 -90 55 -80 59 127 59 100 1 220
6 267 13 83 12 85 13 101 47 20 41 18 43 -66 60 -95 19 -184 49 -271 91 -146
69 -339 235 -476 409 -162 206 -279 381 -259 388 6 2 9 8 6 13 -4 5 25 -15 64
-44 329 -247 693 -239 982 21 63 57 129 151 183 260 25 49 47 79 69 92 76 46
282 105 445 126 29 4 55 10 58 15 23 38 -271 83 -581 88 -175 3 -364 -22 -575
-76 -14 -3 -29 -7 -35 -9 -5 -2 -48 -14 -95 -28 -47 -14 -132 -43 -190 -65
-58 -21 -121 -45 -140 -52 -54 -19 -114 -46 -237 -105 -62 -30 -116 -54 -121
-54 -16 0 -85 94 -103 141 -63 165 48 304 307 385 123 38 317 74 404 74 67 0
102 9 97 24 -7 21 -166 56 -253 56 -205 -1 -557 -131 -691 -256 -32 -29 -63
-53 -69 -54 -5 0 -31 29 -57 64 -46 63 -94 111 -152 153 l-30 21 23 47 c27 55
87 138 131 179 35 34 39 46 14 41 -10 -2 -20 -4 -23 -4 -9 -1 -45 -30 -132
-103 -44 -38 -88 -68 -97 -68 -10 0 -28 12 -40 26 -35 40 -106 67 -194 72 -55
3 -80 9 -84 19 -6 16 161 190 279 290 148 126 336 244 473 298 78 31 242 74
325 85 98 14 397 5 477 -14z m-1383 -850 c186 -140 281 -279 342 -501 22 -81
27 -123 28 -217 l1 -117 49 -16 c54 -18 157 -69 221 -109 34 -22 37 -25 17
-26 -13 0 -31 4 -40 9 -19 10 -173 24 -272 25 -97 0 -228 -13 -284 -30 -61
-17 -66 -17 -66 0 0 7 13 19 30 26 16 7 35 19 42 27 13 16 13 16 -90 1 -7 -1
-11 -6 -9 -12 3 -7 -9 -12 -32 -12 -43 0 -244 -94 -259 -121 -6 -10 -13 -17
-16 -15 -15 6 -26 1 -26 -14 0 -8 -5 -12 -11 -8 -6 3 -33 -17 -61 -45 -27 -28
-53 -51 -57 -51 -4 0 -14 -11 -21 -25 -7 -13 -33 -45 -57 -71 -24 -26 -42 -53
-41 -59 2 -7 -8 -22 -22 -33 -14 -11 -23 -23 -20 -26 8 -7 66 44 63 55 -2 5 2
9 7 9 10 0 68 40 107 74 12 10 19 24 17 30 -3 7 13 12 43 13 l48 2 -45 -37
c-110 -91 -250 -280 -250 -339 0 -7 -5 -13 -11 -13 -6 0 -9 -9 -6 -20 3 -11 1
-18 -4 -14 -5 3 -9 -8 -9 -25 0 -16 -4 -32 -9 -35 -7 -5 -15 -40 -27 -121 -1
-11 -9 -48 -17 -82 -9 -35 -11 -63 -6 -63 5 0 10 15 10 33 2 29 2 30 6 5 2
-15 -2 -37 -9 -50 -7 -13 -14 -32 -15 -43 -1 -11 -9 -56 -16 -100 l-13 -80
-36 75 c-104 215 -149 452 -143 750 5 226 25 343 96 568 94 291 294 574 509
719 93 62 260 147 300 152 3 1 31 -19 64 -43z m1936 -503 c0 -3 -14 -28 -31
-55 -45 -70 -112 -125 -209 -172 -74 -36 -95 -41 -167 -44 -56 -3 -99 1 -139
13 -73 21 -159 64 -148 74 25 21 274 104 424 141 195 48 270 60 270 43z
m-1000 -283 c0 -5 -2 -10 -4 -10 -3 0 -8 5 -11 10 -3 6 -1 10 4 10 6 0 11 -4
11 -10z m-913 -156 c-3 -3 -12 -4 -19 -1 -8 3 -5 6 6 6 11 1 17 -2 13 -5z
m336 -31 c-7 -2 -19 -2 -25 0 -7 3 -2 5 12 5 14 0 19 -2 13 -5z m245 -15 c7
-7 12 -16 12 -20 0 -15 -15 -8 -28 12 -13 22 -3 27 16 8z m102 -18 c8 -5 12
-11 9 -14 -3 -3 -14 1 -25 9 -21 16 -8 20 16 5z m90 -61 c0 -5 -4 -9 -10 -9
-5 0 -10 4 -10 9 0 5 -9 13 -20 16 -11 3 -20 10 -20 15 0 5 14 2 30 -6 17 -9
30 -20 30 -25z m-60 6 c14 -19 14 -19 -2 -6 -10 7 -18 18 -18 24 0 6 1 8 3 6
1 -2 9 -13 17 -24z m98 -27 c7 -7 12 -16 12 -22 0 -5 -6 -2 -13 9 -14 19 -43
12 -31 -7 4 -7 2 -8 -5 -4 -9 6 -9 11 0 22 14 17 21 18 37 2z m-301 -14 c-3
-3 -12 -4 -19 -1 -8 3 -5 6 6 6 11 1 17 -2 13 -5z m413 -83 c14 -11 19 -20 13
-21 -7 0 -13 6 -13 13 0 8 -4 7 -10 -3 -8 -13 -10 -12 -10 3 0 9 -7 17 -16 17
-8 0 -12 4 -9 10 4 6 -6 7 -26 3 -24 -4 -30 -3 -25 6 5 7 15 10 24 6 14 -5 14
-3 -1 13 -29 32 -19 33 16 2 17 -16 43 -38 57 -49z m-245 38 c28 -6 59 -15 70
-20 11 -5 13 -8 3 -5 -9 3 -62 10 -119 17 -100 11 -416 7 -484 -6 -25 -5 -27
-4 -12 5 41 26 433 33 542 9z m-631 -17 c14 3 26 1 26 -3 0 -5 -6 -9 -12 -9
-7 0 -22 -3 -33 -6 -16 -4 -21 0 -22 18 -2 16 0 19 6 9 6 -8 19 -12 35 -9z
m63 2 c-3 -3 -12 -4 -19 -1 -8 3 -5 6 6 6 11 1 17 -2 13 -5z m690 -10 c-3 -3
-12 -4 -19 -1 -8 3 -5 6 6 6 11 1 17 -2 13 -5z m-827 -25 c-42 -12 -57 -9 -25
5 17 7 34 11 40 8 5 -4 -1 -9 -15 -13z m910 10 c11 -7 4 -8 -25 -3 -50 8 -58
14 -19 14 16 0 36 -5 44 -11z m-980 -26 c-8 -3 -24 -10 -35 -15 -20 -9 -20 -9
-1 6 11 9 27 16 35 15 14 0 14 -1 1 -6z m-417 -18 c-3 -9 -8 -14 -10 -11 -3 3
-2 9 2 15 9 16 15 13 8 -4z m77 5 c0 -5 -2 -10 -4 -10 -3 0 -8 5 -11 10 -3 6
-1 10 4 10 6 0 11 -4 11 -10z m225 0 c3 -5 1 -10 -4 -10 -6 0 -11 5 -11 10 0
6 2 10 4 10 3 0 8 -4 11 -10z m42 -16 c-3 -3 -12 -4 -19 -1 -8 3 -5 6 6 6 11
1 17 -2 13 -5z m-127 -8 c0 -2 -7 -6 -15 -10 -8 -3 -15 -1 -15 4 0 6 7 10 15
10 8 0 15 -2 15 -4z m80 -4 c0 -7 -103 -62 -117 -62 -9 0 99 68 110 69 4 1 7
-3 7 -7z m-350 -52 c0 -5 -2 -10 -4 -10 -3 0 -8 5 -11 10 -3 6 -1 10 4 10 6 0
11 -4 11 -10z m1140 -10 c46 -6 25 -7 -72 -4 -131 4 -138 3 -148 -17 -7 -11
-14 -18 -17 -15 -3 3 0 13 8 22 13 16 12 17 -8 12 -13 -4 -26 -2 -29 3 -6 11
173 10 266 -1z m-375 -15 c-49 -8 -105 -19 -123 -25 -19 -7 -36 -10 -38 -7
-14 14 131 44 211 45 22 0 0 -6 -50 -13z m516 1 c80 -5 215 -37 198 -46 -17
-10 -69 -1 -69 11 0 5 -10 9 -22 9 -45 0 -178 25 -178 33 0 4 4 6 9 3 5 -3 33
-7 62 -10z m-1061 -6 c0 -5 -4 -10 -10 -10 -5 0 -10 5 -10 10 0 6 5 10 10 10
6 0 10 -4 10 -10z m-40 -30 c-24 -15 -36 -11 -14 4 10 8 21 12 24 10 2 -3 -2
-9 -10 -14z m1078 13 c-10 -2 -26 -2 -35 0 -10 3 -2 5 17 5 19 0 27 -2 18 -5z
m-1110 -48 c-3 -3 -9 2 -12 12 -6 14 -5 15 5 6 7 -7 10 -15 7 -18z m407 15
c-3 -5 -13 -10 -20 -10 -19 0 -91 -38 -106 -56 -10 -12 -14 -12 -20 -2 -5 8
13 22 59 44 69 34 98 41 87 24z m1041 -7 c30 -10 60 -26 65 -35 12 -22 -6 -25
-18 -4 -4 8 -39 23 -78 34 -38 11 -60 21 -48 21 12 1 48 -7 79 -16z m-1466
-10 c-1 -10 -49 -62 -75 -83 -19 -14 -19 -14 -5 4 8 11 25 30 38 42 12 13 22
28 22 34 0 5 5 10 10 10 6 0 10 -3 10 -7z m824 -67 c-2 -13 3 -15 20 -10 11 4
62 7 111 6 78 -2 115 -6 230 -26 11 -1 27 -5 35 -8 8 -3 44 -14 80 -24 36 -9
70 -21 76 -26 6 -4 13 -5 16 -3 3 3 3 -6 0 -21 -4 -22 -2 -26 12 -21 10 4 16
1 16 -9 0 -9 -5 -12 -12 -8 -8 5 -9 -2 -4 -27 4 -19 9 -52 12 -74 3 -22 7 -49
8 -60 2 -11 4 -46 5 -77 1 -55 3 -59 34 -72 64 -28 7 -15 -109 25 -192 66
-397 123 -534 148 -266 49 -376 61 -538 61 -90 0 -131 3 -127 10 4 6 16 8 27
4 11 -3 30 -2 42 4 253 117 317 132 606 134 106 1 133 3 101 9 -24 5 -48 6
-52 3 -5 -3 -9 0 -9 6 0 6 -12 11 -27 10 -78 -5 -114 10 -58 24 21 5 24 10 15
25 -8 16 -6 19 8 16 9 -1 16 -10 16 -19z m191 14 c3 -5 -1 -10 -10 -10 -9 0
-13 5 -10 10 3 6 8 10 10 10 2 0 7 -4 10 -10z m142 4 c-3 -3 -12 -4 -19 -1 -8
3 -5 6 6 6 11 1 17 -2 13 -5z m-897 -9 c0 -2 -13 -11 -30 -20 -16 -9 -30 -12
-30 -8 0 5 10 13 23 19 25 13 37 16 37 9z m847 -1 c-3 -3 -12 -4 -19 -1 -8 3
-5 6 6 6 11 1 17 -2 13 -5z m-342 -14 c-3 -5 -10 -10 -16 -10 -5 0 -9 5 -9 10
0 6 7 10 16 10 8 0 12 -4 9 -10z m382 4 c-3 -3 -12 -4 -19 -1 -8 3 -5 6 6 6
11 1 17 -2 13 -5z m408 -24 c3 -5 -1 -10 -9 -10 -9 0 -16 5 -16 10 0 6 4 10 9
10 6 0 13 -4 16 -10z m-1371 -15 c-4 -8 -10 -12 -15 -9 -11 6 -2 24 11 24 5 0
7 -7 4 -15z m-291 -25 c-3 -12 -8 -19 -11 -16 -5 6 5 36 12 36 2 0 2 -9 -1
-20z m1677 -11 c0 -5 -4 -9 -10 -9 -5 0 -10 7 -10 16 0 8 5 12 10 9 6 -3 10
-10 10 -16z m-1436 2 c3 -5 -3 -11 -15 -14 -16 -4 -18 -3 -8 9 13 16 16 17 23
5z m-67 -59 c-21 -21 -27 -23 -27 -10 0 9 9 20 20 23 11 3 20 11 20 17 0 6 3
8 7 4 4 -3 -5 -19 -20 -34z m1513 18 c0 -5 -4 -10 -10 -10 -5 0 -10 5 -10 10
0 6 5 10 10 10 6 0 10 -4 10 -10z m-1735 -9 c3 -5 1 -12 -5 -16 -5 -3 -10 1
-10 9 0 18 6 21 15 7z m185 -35 c0 -3 -4 -8 -10 -11 -5 -3 -10 -1 -10 4 0 6 5
11 10 11 6 0 10 -2 10 -4z m1555 -16 c3 -5 1 -10 -4 -10 -6 0 -11 5 -11 10 0
6 2 10 4 10 3 0 8 -4 11 -10z m-1781 -25 c-9 -14 -18 -25 -21 -25 -5 0 5 18
20 38 17 22 18 13 1 -13z m187 12 c-6 -8 -7 -18 -3 -22 4 -5 1 -5 -5 -1 -7 4
-13 2 -13 -3 0 -6 -5 -11 -12 -11 -6 0 -1 11 12 25 25 26 41 35 21 12z m72
-34 c-7 -2 -19 -2 -25 0 -7 3 -2 5 12 5 14 0 19 -2 13 -5z m50 0 c-7 -2 -19
-2 -25 0 -7 3 -2 5 12 5 14 0 19 -2 13 -5z m-163 -22 c0 -5 -9 -11 -20 -14
-20 -5 -26 3 -13 16 9 10 33 8 33 -2z m47 3 c-3 -3 -12 -4 -19 -1 -8 3 -5 6 6
6 11 1 17 -2 13 -5z m-244 -59 c-9 -19 -18 -33 -21 -31 -4 5 26 66 33 66 3 0
-3 -16 -12 -35z m1834 -97 c-3 -8 -6 -5 -6 6 -1 11 2 17 5 13 3 -3 4 -12 1
-19z m-30 -98 c13 0 23 -4 23 -10 0 -16 -26 -12 -47 8 -10 9 -14 14 -9 10 6
-5 20 -8 33 -8z m-560 -300 c274 -145 617 -457 853 -775 24 -33 53 -68 65 -77
11 -9 20 -20 20 -25 1 -15 49 -93 58 -93 5 0 4 7 -3 15 -7 8 -10 15 -7 15 10
0 -32 137 -69 227 -72 174 -172 361 -270 508 -19 27 -34 53 -34 57 0 40 180
-60 328 -182 166 -135 339 -337 494 -574 67 -103 223 -391 274 -506 154 -350
227 -740 227 -1210 1 -273 -7 -399 -26 -424 -9 -11 -38 -16 -122 -18 -128 -4
-117 -13 -162 137 -54 182 -142 390 -206 492 -15 24 -27 45 -27 48 0 6 -99
151 -127 187 -46 57 -127 138 -140 138 -11 0 -12 -11 -6 -52 12 -77 8 -351 -6
-438 -22 -141 -98 -420 -138 -507 -13 -29 -20 -33 -53 -33 -49 0 -70 8 -70 28
0 9 -11 52 -24 96 -13 45 -33 117 -45 161 -86 312 -225 707 -267 756 -8 8 -14
18 -14 21 0 9 -91 169 -122 216 -16 23 -34 42 -41 42 -7 0 -23 -26 -37 -58
-33 -77 -136 -290 -158 -327 -137 -230 -226 -341 -383 -475 -35 -30 -66 -57
-69 -60 -3 -3 -32 -25 -65 -50 -33 -24 -82 -63 -110 -86 -60 -49 -205 -148
-222 -152 -21 -4 -15 19 27 98 145 275 360 730 360 762 0 8 4 18 9 24 28 29
192 504 230 664 67 286 66 277 66 560 0 146 -3 312 -7 370 -13 186 -62 420
-106 507 -35 68 -17 67 125 -7z m-962 -289 c-9 -64 -25 -139 -35 -168 -10 -28
-16 -53 -14 -56 8 -7 -96 -255 -118 -281 -4 -6 -21 -30 -36 -53 -44 -68 -147
-178 -225 -240 -75 -60 -133 -103 -140 -103 -20 0 -254 -170 -298 -216 -62
-66 -142 -181 -184 -264 -46 -91 -65 -90 -65 4 0 174 97 395 266 606 157 197
324 475 395 658 41 106 61 80 60 -77 -1 -95 -19 -199 -41 -242 -17 -30 -19
-69 -5 -69 19 0 157 131 224 214 100 122 193 294 217 399 16 71 15 -2 -1 -112z
m5555 -2541 c0 -5 -7 -7 -15 -4 -8 4 -15 8 -15 10 0 2 7 4 15 4 8 0 15 -4 15
-10z m284 -5 c11 -8 15 -15 10 -15 -6 0 -19 7 -30 15 -10 8 -14 14 -9 14 6 0
19 -6 29 -14z m252 3 c4 -7 3 -8 -5 -4 -6 4 -18 3 -26 -4 -10 -8 -15 -8 -21 1
-4 7 -3 9 4 5 6 -3 13 -2 17 4 8 13 22 13 31 -2z m664 2 c0 -5 6 -10 14 -10 8
0 16 -7 20 -15 3 -8 12 -15 20 -15 9 0 12 -7 9 -20 -6 -21 -23 -28 -23 -9 0 7
-17 27 -37 45 -28 24 -33 33 -20 34 9 0 17 -4 17 -10z m-794 -15 c-20 -15 -36
-19 -36 -10 0 5 38 23 50 24 3 0 -4 -6 -14 -14z m-346 -40 c-7 -8 -9 -24 -5
-36 5 -14 4 -19 -4 -15 -14 9 -15 53 -1 61 5 3 7 13 4 23 -5 15 -4 15 6 -1 9
-14 9 -21 0 -32z m52 38 c-6 -2 -10 -9 -6 -14 3 -5 1 -9 -5 -9 -5 0 -12 4 -15
9 -6 9 10 19 29 19 6 0 4 -2 -3 -5z m483 -11 c-3 -3 -11 0 -18 7 -9 10 -8 11
6 5 10 -3 15 -9 12 -12z m40 8 c3 -5 1 -10 -4 -10 -6 0 -11 5 -11 10 0 6 2 10
4 10 3 0 8 -4 11 -10z m-635 -4 c0 -3 -4 -8 -10 -11 -5 -3 -10 -1 -10 4 0 6 5
11 10 11 6 0 10 -2 10 -4z m515 -6 c-3 -5 -12 -10 -18 -10 -7 0 -6 4 3 10 19
12 23 12 15 0z m-198 -16 c-3 -3 -12 -4 -19 -1 -8 3 -5 6 6 6 11 1 17 -2 13
-5z m-197 -34 c8 -5 11 -10 5 -10 -5 0 -17 5 -25 10 -8 5 -10 10 -5 10 6 0 17
-5 25 -10z m1014 2 c3 -5 0 -9 -7 -9 -7 -1 -38 -4 -69 -8 -39 -5 -58 -4 -58 3
0 6 15 12 33 14 78 7 96 7 101 0z m-645 -14 c14 -8 78 -9 257 -1 221 10 255
10 243 -1 -2 -2 -132 -6 -289 -9 -157 -3 -273 -3 -257 0 15 2 25 9 22 14 -8
12 1 11 24 -3z m632 -59 c-5 -13 -10 -19 -10 -12 -1 15 10 45 15 40 3 -2 0
-15 -5 -28z m117 -4 c-3 -3 -9 2 -12 12 -6 14 -5 15 5 6 7 -7 10 -15 7 -18z
m-144 -107 c-10 -13 -20 -25 -21 -27 -2 -2 -3 1 -3 7 0 11 27 42 37 42 3 0 -2
-10 -13 -22z m-24 -63 c0 -8 -4 -15 -10 -15 -5 0 -7 7 -4 15 4 8 8 15 10 15 2
0 4 -7 4 -15z m5 -35 c4 -6 -1 -7 -11 -3 -14 5 -16 2 -12 -15 4 -12 2 -22 -3
-22 -10 0 -12 33 -2 43 9 10 21 9 28 -3z m-35 -60 c0 -5 -4 -10 -10 -10 -5 0
-10 5 -10 10 0 6 5 10 10 10 6 0 10 -4 10 -10z m-748 -68 c32 -32 33 -34 32
-120 0 -48 -6 -136 -14 -195 -12 -96 -15 -108 -34 -112 -12 -2 -88 -6 -170
-10 -105 -4 -152 -2 -162 6 -9 7 -14 31 -14 60 0 42 -3 51 -23 58 -29 11 -187
3 -203 -10 -12 -10 -17 -39 -29 -181 l-6 -68 213 0 c117 0 219 -4 226 -9 10
-6 11 -22 3 -72 -5 -35 -13 -104 -17 -152 -8 -108 -7 -107 -168 -107 -62 0
-153 -3 -203 -6 l-90 -7 -12 -113 c-7 -63 -10 -123 -6 -134 6 -19 15 -20 133
-20 70 0 133 4 140 9 8 4 19 32 25 62 l12 54 70 6 c103 9 268 10 282 1 10 -6
9 -41 -2 -161 -17 -177 -28 -227 -58 -260 -44 -47 -67 -51 -399 -56 -172 -3
-358 -7 -413 -10 -103 -5 -167 6 -192 31 -8 7 -21 30 -29 50 -16 39 -16 37 17
339 5 50 16 160 24 245 8 85 23 243 34 350 11 107 17 198 15 202 -3 4 -29 8
-58 8 -80 0 -81 3 -63 176 8 80 20 151 26 157 8 8 95 13 279 15 147 2 268 5
269 5 1 1 121 2 267 2 l266 0 32 -33z m-1617 13 c133 -28 235 -98 281 -190 25
-53 26 -59 19 -163 -4 -59 -11 -115 -16 -124 -9 -16 -28 -18 -177 -18 -92 0
-172 4 -179 8 -6 4 -13 27 -15 51 -5 65 -37 86 -131 85 -86 -1 -125 -18 -152
-68 -19 -35 -19 -36 1 -63 24 -33 93 -69 257 -137 216 -88 327 -183 367 -313
63 -205 -36 -442 -240 -574 -30 -19 -95 -48 -145 -64 -81 -26 -104 -29 -230
-29 -132 0 -145 2 -233 32 -52 18 -124 52 -160 76 -65 41 -152 120 -152 136 0
22 230 280 249 280 6 0 33 -20 60 -44 60 -53 156 -102 232 -118 77 -16 163 11
196 61 13 19 23 41 23 49 0 25 -83 96 -136 116 -89 35 -308 147 -350 179 -91
72 -144 158 -165 268 -10 56 -9 77 5 139 25 112 60 176 141 256 83 81 178 135
287 164 91 23 263 26 363 5z m2350 5 c3 -5 1 -10 -4 -10 -6 0 -11 5 -11 10 0
6 2 10 4 10 3 0 8 -4 11 -10z m-3348 -41 c13 -5 32 -23 44 -41 22 -35 22 -28
1 -292 -7 -80 -12 -101 -27 -113 -15 -10 -56 -13 -185 -11 l-165 3 -3 55 c-2
30 -6 57 -9 60 -7 7 -119 7 -179 1 -48 -6 -49 -7 -55 -46 -13 -79 -18 -190
-10 -203 6 -11 53 -13 215 -12 187 1 207 -1 213 -17 9 -24 -13 -276 -26 -302
-11 -20 -18 -21 -220 -21 -176 0 -211 -2 -221 -16 -18 -21 -35 -243 -20 -258
11 -11 226 -11 262 0 10 3 21 17 24 32 3 15 10 44 15 65 l10 37 168 0 c125 0
171 -3 179 -13 16 -19 -20 -335 -44 -384 -13 -27 -32 -44 -64 -60 -43 -21 -61
-22 -470 -28 -443 -7 -460 -6 -498 35 -35 38 -35 75 -2 385 11 100 39 389 64
645 7 74 11 141 9 148 -3 8 -26 12 -63 12 -33 0 -62 5 -66 11 -8 14 14 266 28
302 10 26 13 27 82 27 194 0 902 13 906 17 6 5 78 -7 107 -18z m-1230 -35 c28
-21 28 -22 28 -130 0 -102 -9 -224 -21 -285 l-5 -26 -132 -5 c-73 -3 -150 -3
-172 1 -40 6 -40 7 -45 58 -3 28 -9 55 -13 59 -8 8 -123 7 -137 -1 -5 -3 -11
-36 -15 -73 -3 -37 -10 -110 -15 -162 -6 -52 -21 -212 -35 -355 -50 -519 -62
-616 -73 -626 -4 -4 -92 -9 -197 -11 l-190 -3 2 90 c0 50 6 137 11 195 16 159
32 314 43 420 5 52 16 169 24 260 8 91 17 186 21 213 8 53 11 51 -86 47 -56
-2 -69 -15 -78 -76 l-7 -49 -173 -3 c-142 -2 -173 0 -178 12 -7 18 24 321 37
362 13 43 46 71 99 84 63 15 437 26 892 25 377 0 387 0 415 -21z m-1801 -12
c13 -8 45 -116 149 -507 7 -27 23 -86 35 -130 12 -44 41 -154 66 -245 95 -351
83 -319 120 -326 54 -10 59 -23 46 -117 -6 -45 -14 -114 -18 -153 l-6 -72 -45
-6 c-73 -10 -254 -7 -297 5 -65 18 -96 66 -120 185 -14 67 -26 107 -33 114
-12 12 -27 12 -246 11 l-197 -1 -29 -62 c-16 -35 -40 -88 -54 -118 -36 -83
-78 -126 -135 -139 -26 -6 -112 -12 -192 -13 l-145 -3 3 90 c3 106 20 225 34
243 6 6 23 12 39 12 36 0 42 8 134 211 42 90 79 171 84 180 5 8 43 91 86 185
42 93 93 203 112 244 19 41 69 147 110 235 41 88 76 162 78 164 19 18 395 30
421 13z m-1210 -20 c8 -5 9 -160 3 -587 -5 -319 -7 -590 -4 -602 4 -18 12 -23
39 -23 54 0 57 -10 40 -165 -8 -77 -19 -150 -24 -162 -9 -21 -16 -23 -142 -25
-203 -4 -274 4 -304 34 -42 41 -45 80 -32 416 8 243 8 316 -1 325 -10 9 -11 8
-5 -8 4 -11 4 -17 -1 -13 -4 4 -13 -2 -20 -15 -6 -12 -44 -83 -83 -157 -39
-74 -95 -180 -125 -235 l-53 -100 -161 -3 -161 -2 -17 42 c-10 24 -30 81 -46
128 -49 150 -87 254 -108 294 -13 25 -18 48 -14 67 3 16 1 29 -4 29 -6 0 -11
-23 -12 -51 0 -28 -4 -56 -8 -62 -4 -7 -10 -32 -14 -57 -6 -43 -60 -349 -79
-455 -16 -90 -29 -120 -65 -155 -31 -30 -41 -34 -112 -39 -43 -3 -136 -6 -208
-6 l-130 0 0 55 c1 93 15 241 26 261 6 12 20 19 38 19 55 0 62 19 111 295 30
170 63 352 86 475 7 41 28 156 45 255 19 108 38 187 47 198 13 15 37 17 218
17 l202 0 57 -177 c31 -98 76 -239 100 -313 24 -74 54 -170 66 -212 12 -43 26
-78 30 -78 6 0 220 416 359 697 24 51 52 94 60 96 29 8 395 7 406 -1z m7525
-59 c-12 -20 -14 -14 -5 12 4 9 9 14 11 11 3 -2 0 -13 -6 -23z m-114 -345 c-3
-8 -6 -5 -6 6 -1 11 2 17 5 13 3 -3 4 -12 1 -19z m-17 -53 c-7 -9 -15 -13 -18
-10 -3 2 1 11 8 20 7 9 15 13 18 10 3 -2 -1 -11 -8 -20z m-27 -100 c-3 -9 -8
-14 -10 -11 -3 3 -2 9 2 15 9 16 15 13 8 -4z m-82 -258 c-10 -9 -11 -8 -5 6 3
10 9 15 12 12 3 -3 0 -11 -7 -18z m-24 -219 c-3 -8 -6 -5 -6 6 -1 11 2 17 5
13 3 -3 4 -12 1 -19z m-217 -563 c0 -2 -10 -10 -22 -16 -21 -11 -22 -11 -9 4
13 16 31 23 31 12z m-135 -25 c-38 -4 -131 -7 -205 -7 l-135 1 145 6 c80 3
172 6 205 6 l60 1 -70 -7z m-346 -5 c-10 -9 -79 -13 -79 -4 0 5 19 9 42 9 23
0 39 -2 37 -5z m-149 -8 c-3 -3 -43 -8 -90 -11 -47 -3 -85 -5 -85 -6 0 0 -71
-1 -158 -3 -86 -1 -157 1 -157 5 0 4 57 9 128 10 70 2 181 4 247 6 66 2 118 1
115 -1z m-632 -24 c-67 -2 -118 -8 -118 -13 0 -11 -30 -13 -54 -4 -42 16 8 24
142 22 l147 -2 -117 -3z m-338 -13 c-74 -3 -140 -9 -147 -13 -6 -4 -19 -4 -28
-1 -40 16 18 24 160 22 l150 -1 -135 -7z m-233 -7 c-9 -2 -15 -9 -12 -14 4 -5
2 -9 -4 -9 -5 0 -12 4 -16 9 -3 6 -64 8 -148 5 -86 -3 -134 -1 -122 5 11 4 88
8 170 9 83 0 142 -2 132 -5z m-331 -11 c-6 -10 -192 -9 -202 1 -4 4 41 7 100
7 59 0 105 -4 102 -8z m-406 -13 c-115 -8 -366 -13 -390 -8 -17 4 260 14 400
15 l95 1 -105 -8z m137 5 c-3 -3 -12 -4 -19 -1 -8 3 -5 6 6 6 11 1 17 -2 13
-5z m40 0 c-3 -3 -12 -4 -19 -1 -8 3 -5 6 6 6 11 1 17 -2 13 -5z m-612 -14
c-28 -12 -47 -12 -40 0 3 6 18 10 33 9 24 0 25 -1 7 -9z m-106 -9 c-25 -4 -72
-4 -105 0 -48 5 -39 6 46 6 71 0 90 -2 59 -6z m-251 -7 c-6 -5 -118 -10 -431
-18 -64 -2 -115 0 -111 3 3 3 78 9 167 12 251 8 381 10 375 3z m1487 -14 c-3
-5 -13 -10 -21 -10 -8 0 -14 5 -14 10 0 6 9 10 21 10 11 0 17 -4 14 -10z
m1630 0 c-3 -5 -13 -10 -21 -10 -8 0 -14 5 -14 10 0 6 9 10 21 10 11 0 17 -4
14 -10z m-3950 -10 c3 -5 -1 -10 -10 -10 -9 0 -13 5 -10 10 3 6 8 10 10 10 2
0 7 -4 10 -10z m82 3 c-11 -11 -69 -14 -62 -3 3 6 20 10 37 10 17 0 28 -3 25
-7z m141 -3 c-31 -4 -73 -4 -95 0 -27 6 -12 8 57 8 85 -1 89 -1 38 -8z m3779
4 c-3 -3 -12 -4 -19 -1 -8 3 -5 6 6 6 11 1 17 -2 13 -5z m-4202 -15 c-4 -5
-61 -8 -128 -7 -120 2 -121 2 -37 7 144 10 170 10 165 0z m148 4 c-13 -2 -33
-2 -45 0 -13 2 -3 4 22 4 25 0 35 -2 23 -4z m267 -13 c0 -5 -4 -10 -9 -10 -6
0 -13 5 -16 10 -3 6 1 10 9 10 9 0 16 -4 16 -10z m-322 -7 c-16 -2 -40 -2 -55
0 -16 2 -3 4 27 4 30 0 43 -2 28 -4z m280 -7 c3 -4 -36 -6 -86 -6 -51 0 -92 3
-92 8 0 8 169 6 178 -2z m246 -8 c-2 -3 2 -9 8 -12 7 -4 2 -4 -12 -1 -14 2
-63 5 -110 6 -52 1 -75 4 -60 8 31 9 180 8 174 -1z m1546 8 c0 -2 -9 -6 -20
-9 -11 -3 -18 -1 -14 4 5 9 34 13 34 5z m248 -3 c-10 -2 -28 -2 -40 0 -13 2
-5 4 17 4 22 1 32 -1 23 -4z m-1518 -25 c0 -8 -221 1 -230 9 -3 3 48 3 112 1
65 -1 118 -6 118 -10z m190 2 c0 -5 -4 -10 -10 -10 -5 0 -10 5 -10 10 0 6 5
10 10 10 6 0 10 -4 10 -10z m90 0 c0 -5 21 -10 47 -10 33 0 44 -3 36 -11 -6
-6 -30 -7 -64 -3 -30 4 -48 9 -41 11 6 3 10 9 6 14 -3 5 0 9 5 9 6 0 11 -4 11
-10z m-213 -6 c-3 -3 -12 -4 -19 -1 -8 3 -5 6 6 6 11 1 17 -2 13 -5z m353 -19
c0 -3 -9 -5 -20 -5 -11 0 -20 7 -20 15 0 13 4 14 20 5 11 -6 20 -13 20 -15z
m83 -2 c-7 -2 -19 -2 -25 0 -7 3 -2 5 12 5 14 0 19 -2 13 -5z m70 0 c-7 -2
-19 -2 -25 0 -7 3 -2 5 12 5 14 0 19 -2 13 -5z m44 1 c-3 -3 -12 -4 -19 -1 -8
3 -5 6 6 6 11 1 17 -2 13 -5z m123 -3 l45 -8 -55 -1 c-30 0 -64 3 -75 8 -17 7
-16 9 10 9 17 0 50 -4 75 -8z m103 -8 c-7 -2 -21 -2 -30 0 -10 3 -4 5 12 5 17
0 24 -2 18 -5z m67 3 c0 -9 -30 -14 -35 -6 -4 6 3 10 14 10 12 0 21 -2 21 -4z
m14 -42 c9 -3 16 -10 16 -16 0 -5 -5 -6 -10 -3 -13 8 -42 -14 -34 -26 3 -5 -2
-9 -10 -9 -9 0 -16 5 -16 10 0 6 4 10 9 10 5 0 11 9 14 20 6 22 8 23 31 14z
m-83 -117 c-10 -9 -11 -8 -5 6 3 10 9 15 12 12 3 -3 0 -11 -7 -18z m69 2 c0
-5 -7 -9 -15 -9 -9 0 -12 6 -9 15 6 15 24 11 24 -6z m-1710 -18 c37 -27 51
-60 44 -105 -17 -109 -120 -177 -211 -141 -41 16 -66 51 -78 108 l-5 27 -29
-21 c-15 -11 -47 -23 -70 -26 -39 -5 -42 -8 -52 -49 -9 -34 -16 -44 -31 -44
-18 0 -20 5 -14 53 17 158 18 175 8 181 -6 4 -9 13 -5 21 4 11 23 15 82 15 96
-1 116 -14 116 -73 l0 -43 27 42 c50 80 149 104 218 55z m259 -2 c17 -24 31
-24 31 0 0 27 22 32 137 30 88 -1 103 -4 103 -18 1 -14 2 -14 11 1 8 14 23 17
79 16 38 0 73 -4 78 -7 5 -3 17 -41 26 -84 10 -42 21 -75 26 -72 5 3 28 41 52
85 34 64 48 80 66 80 15 0 22 -6 22 -19 0 -11 -5 -23 -10 -26 -6 -4 -33 -50
-59 -104 -55 -108 -74 -130 -99 -115 -14 10 -39 90 -56 187 -8 45 -41 52 -56
12 -12 -31 -28 -163 -21 -170 3 -3 6 -12 7 -20 2 -11 -8 -15 -36 -15 -43 0
-58 13 -39 36 13 16 41 173 33 186 -8 12 -34 10 -34 -3 0 -8 -14 -9 -44 -5
l-44 7 -11 -73 c-7 -40 -14 -90 -17 -110 -4 -29 -10 -38 -25 -38 -29 0 -32 20
-15 116 8 49 12 92 7 97 -4 4 -25 5 -47 1 -35 -6 -42 -12 -68 -65 -28 -57 -28
-59 -12 -94 14 -28 15 -39 6 -50 -18 -22 -45 -3 -64 45 -24 62 -66 52 -66 -15
0 -14 -9 -29 -20 -35 -30 -16 -35 8 -22 114 6 50 10 102 9 116 -2 21 3 26 33
32 56 10 123 -1 139 -23z m803 -79 c30 -118 33 -146 17 -155 -14 -9 -49 24
-49 45 0 19 -19 30 -52 30 -11 0 -36 -18 -57 -40 -27 -29 -43 -39 -55 -34 -9
4 -15 9 -14 13 25 52 96 184 115 213 18 29 30 38 46 36 19 -3 26 -17 49 -108z
m-2133 89 c53 -16 75 -52 74 -117 -2 -60 -32 -111 -83 -137 -39 -20 -114 -19
-147 2 -29 19 -53 69 -53 108 l0 26 -24 -25 c-17 -16 -42 -26 -75 -31 -50 -7
-51 -8 -57 -46 -6 -33 -10 -40 -28 -37 -17 2 -21 9 -19 33 1 17 6 73 10 125
l8 95 60 3 c32 2 70 0 83 -3 25 -6 53 -59 45 -84 -3 -9 6 -1 20 18 30 39 50
54 92 69 40 14 51 14 94 1z m398 -5 c3 -9 1 -24 -4 -34 -6 -9 -16 -51 -23 -94
-9 -60 -9 -80 0 -92 27 -31 -47 -63 -77 -33 -8 8 -17 8 -31 0 -31 -16 -137
-14 -151 3 -9 11 -9 35 0 101 6 47 8 102 4 121 -6 35 -6 35 27 32 32 -3 33 -5
32 -43 -1 -22 -5 -70 -9 -107 -7 -60 -6 -66 11 -70 11 -2 32 0 48 5 20 7 35 6
49 -2 10 -7 23 -9 27 -4 12 14 32 152 26 178 -3 13 -3 31 0 39 8 22 63 21 71
0z m178 4 c16 -7 25 -19 25 -35 0 -27 -20 -30 -55 -7 -18 12 -28 13 -44 4 -33
-17 -25 -36 29 -69 45 -28 50 -34 50 -66 0 -79 -97 -121 -164 -72 -32 23 -10
39 43 32 35 -5 50 -3 59 8 17 21 7 38 -38 66 -23 14 -44 37 -50 54 -9 26 -6
33 24 63 37 37 74 44 121 22z m2072 -64 c-3 -3 -12 -4 -19 -1 -8 3 -5 6 6 6
11 1 17 -2 13 -5z m-92 -94 c3 -5 1 -10 -4 -10 -6 0 -11 5 -11 10 0 6 2 10 4
10 3 0 8 -4 11 -10z m-225 -140 c-13 -11 -28 -20 -34 -20 -6 0 3 11 19 24 36
29 49 25 15 -4z"/>
<path d="M4570 9416 c0 -8 -5 -18 -12 -22 -8 -5 -9 -2 -5 9 9 23 -5 21 -26 -4
-19 -22 -18 -25 27 -76 18 -22 21 -22 38 -6 17 15 18 15 18 -1 0 -9 -4 -14
-10 -11 -5 3 -10 0 -10 -8 0 -20 37 -50 51 -41 8 4 10 3 5 -4 -4 -7 -2 -12 5
-12 16 0 3 59 -19 83 -9 10 -16 22 -16 26 2 8 -35 81 -41 81 -3 0 -5 -6 -5
-14z"/>
<path d="M4425 9280 c-10 -17 4 -60 20 -60 7 0 16 -8 19 -18 8 -23 62 -56 71
-42 3 5 -1 10 -9 10 -9 0 -16 5 -16 11 0 6 7 9 15 5 26 -9 17 8 -22 45 -58 54
-70 62 -78 49z m25 -26 c0 -8 -5 -12 -10 -9 -6 4 -8 11 -5 16 9 14 15 11 15
-7z"/>
<path d="M4322 9111 c-10 -6 -8 -12 6 -29 24 -28 52 -29 52 -2 0 11 -7 20 -16
20 -8 0 -12 -4 -9 -10 3 -5 4 -10 0 -10 -3 0 -9 9 -13 20 -5 12 -12 16 -20 11z"/>
<path d="M4136 3802 c-3 -5 -30 -74 -60 -153 -29 -79 -63 -168 -75 -197 -12
-29 -21 -57 -21 -62 0 -6 52 -10 125 -10 145 0 135 -13 104 130 -11 52 -28
139 -38 193 -19 99 -24 116 -35 99z"/>
<path d="M8808 2593 c7 -3 16 -2 19 1 4 3 -2 6 -13 5 -11 0 -14 -3 -6 -6z"/>
<path d="M5562 2208 c-7 -7 -12 -27 -12 -45 0 -30 3 -33 29 -33 20 0 35 8 45
22 20 28 20 33 0 52 -18 19 -45 21 -62 4z"/>
<path d="M5794 2201 c-60 -37 -68 -128 -13 -156 40 -21 101 1 125 47 22 43 18
84 -12 107 -33 26 -60 26 -100 2z"/>
<path d="M6075 2190 c-4 -16 -4 -34 0 -40 10 -16 40 -12 59 9 26 28 13 61 -24
61 -23 0 -30 -5 -35 -30z"/>
<path d="M6911 2162 c-16 -30 -14 -42 9 -42 21 0 27 24 11 49 -7 11 -11 10
-20 -7z"/>
<path d="M4530 2190 c-11 -11 -20 -31 -20 -45 0 -21 5 -25 28 -25 52 0 82 58
43 80 -26 13 -28 13 -51 -10z"/>
<path d="M4775 2200 c-44 -18 -65 -49 -65 -95 0 -69 49 -101 108 -71 43 22 62
54 62 103 0 37 -4 44 -30 58 -32 17 -46 18 -75 5z"/>
<path d="M6830 10950 c8 -5 20 -10 25 -10 6 0 3 5 -5 10 -8 5 -19 10 -25 10
-5 0 -3 -5 5 -10z"/>
<path d="M10095 6610 c3 -5 8 -10 11 -10 2 0 4 5 4 10 0 6 -5 10 -11 10 -5 0
-7 -4 -4 -10z"/>
<path d="M10050 6470 c0 -5 7 -10 15 -10 8 0 15 5 15 10 0 6 -7 10 -15 10 -8
0 -15 -4 -15 -10z"/>
<path d="M10057 6439 c7 -7 15 -10 18 -7 3 3 -2 9 -12 12 -14 6 -15 5 -6 -5z"/>
<path d="M10020 6409 c0 -5 5 -7 10 -4 6 3 10 8 10 11 0 2 -4 4 -10 4 -5 0
-10 -5 -10 -11z"/>
<path d="M10016 6365 c-3 -8 -1 -15 4 -15 6 0 10 7 10 15 0 8 -2 15 -4 15 -2
0 -6 -7 -10 -15z"/>
<path d="M9981 6254 c0 -11 3 -14 6 -6 3 7 2 16 -1 19 -3 4 -6 -2 -5 -13z"/>
<path d="M10031 6214 c0 -11 3 -14 6 -6 3 7 2 16 -1 19 -3 4 -6 -2 -5 -13z"/>
<path d="M10050 6200 c0 -5 5 -10 10 -10 6 0 10 5 10 10 0 6 -4 10 -10 10 -5
0 -10 -4 -10 -10z"/>
<path d="M9975 6170 c-3 -5 -1 -10 4 -10 6 0 11 5 11 10 0 6 -2 10 -4 10 -3 0
-8 -4 -11 -10z"/>
<path d="M10016 6172 c-2 -4 -1 -14 5 -22 7 -12 9 -10 9 8 0 23 -5 28 -14 14z"/>
<path d="M10051 6164 c0 -11 3 -14 6 -6 3 7 2 16 -1 19 -3 4 -6 -2 -5 -13z"/>
<path d="M9971 6118 c-1 -21 15 -32 25 -17 4 7 3 9 -4 5 -6 -3 -13 2 -15 11
-4 16 -5 16 -6 1z"/>
<path d="M9932 6100 c-7 -11 -8 -20 -3 -20 9 0 24 30 18 36 -1 2 -8 -6 -15
-16z"/>
<path d="M9928 6063 c7 -3 16 -2 19 1 4 3 -2 6 -13 5 -11 0 -14 -3 -6 -6z"/>
<path d="M9900 6016 c0 -14 -4 -28 -10 -31 -5 -3 -10 -11 -10 -17 0 -6 8 -3
18 8 10 10 17 26 14 36 -2 10 3 18 15 21 15 4 14 5 -4 6 -18 1 -23 -4 -23 -23z"/>
<path d="M9941 5967 c-6 -8 -8 -17 -4 -20 12 -13 22 -7 20 13 -2 24 -1 24 -16
7z"/>
<path d="M9886 5934 c-8 -21 -8 -21 7 -27 7 -3 13 3 14 14 2 24 -13 34 -21 13z"/>
<path d="M9966 5901 c-4 -7 -5 -15 -2 -18 9 -9 19 4 14 18 -4 11 -6 11 -12 0z"/>
<path d="M9880 5840 c-8 -5 -11 -12 -7 -16 4 -4 13 -2 19 4 15 15 7 24 -12 12z"/>
<path d="M9808 5752 c-4 -14 0 -22 13 -25 23 -6 31 4 18 23 -5 8 -9 11 -9 5 0
-5 -4 -4 -9 3 -6 11 -9 9 -13 -6z"/>
<path d="M9903 5685 c-3 -9 -3 -18 -1 -21 3 -3 8 4 11 16 6 23 -1 27 -10 5z"/>
<path d="M9790 5653 c-19 -24 -20 -28 -6 -31 9 -2 13 -8 9 -14 -4 -8 0 -9 11
-5 10 4 27 8 39 8 17 1 15 3 -7 8 -41 9 -48 33 -7 26 23 -4 31 -2 31 9 0 8 -4
18 -10 21 -6 4 -7 -1 -3 -12 6 -17 6 -17 -14 0 -20 18 -21 17 -43 -10z"/>
<path d="M9875 5669 c-4 -6 -5 -12 -2 -15 2 -3 7 2 10 11 7 17 1 20 -8 4z"/>
<path d="M9750 5606 c0 -9 5 -16 10 -16 6 0 10 4 10 9 0 6 -4 13 -10 16 -5 3
-10 -1 -10 -9z"/>
<path d="M9815 5580 c-8 -13 15 -13 35 0 12 8 11 10 -7 10 -12 0 -25 -4 -28
-10z"/>
<path d="M9741 5563 c0 -12 -9 -27 -18 -32 -17 -10 -17 -10 0 -11 9 0 17 4 17
10 0 5 8 7 18 4 10 -4 13 -3 6 3 -7 4 -14 17 -17 28 -4 18 -5 18 -6 -2z"/>
<path d="M9780 5560 c0 -5 5 -10 11 -10 5 0 7 5 4 10 -3 6 -8 10 -11 10 -2 0
-4 -4 -4 -10z"/>
<path d="M9822 5534 c-14 -15 -7 -17 22 -5 15 6 16 9 5 13 -8 3 -20 -1 -27 -8z"/>
<path d="M3583 5520 c-212 -75 -537 -346 -734 -610 -89 -121 -173 -259 -163
-269 6 -6 913 -25 919 -19 1 2 -3 59 -11 128 -7 69 -13 195 -13 280 -1 206 13
268 106 498 7 18 -42 14 -104 -8z"/>
<path d="M9780 5523 c0 -4 5 -15 10 -23 8 -13 10 -13 10 2 0 9 -4 20 -10 23
-5 3 -10 3 -10 -2z"/>
<path d="M9706 5502 c-3 -5 1 -9 9 -9 8 0 15 4 15 9 0 4 -4 8 -9 8 -6 0 -12
-4 -15 -8z"/>
<path d="M9820 5495 c-11 -13 -11 -18 0 -28 10 -10 12 -9 7 5 -3 9 -1 19 6 21
7 2 9 7 6 11 -3 4 -12 -1 -19 -9z"/>
<path d="M9740 5485 c0 -8 -7 -15 -15 -15 -8 0 -15 -5 -15 -11 0 -5 5 -7 10
-4 6 3 10 -1 10 -9 0 -21 16 -21 24 0 3 9 2 12 -5 9 -6 -4 -7 3 -3 19 3 14 3
26 0 26 -3 0 -6 -7 -6 -15z"/>
<path d="M9686 5453 c-6 -14 -5 -15 5 -6 7 7 10 15 7 18 -3 3 -9 -2 -12 -12z"/>
<path d="M9678 5411 c-22 -26 -18 -48 11 -61 24 -12 25 -13 6 -20 -17 -6 -15
-8 13 -12 31 -4 44 5 20 16 -9 3 -4 13 14 28 27 23 27 24 7 36 -26 16 -37 8
-19 -14 12 -14 10 -15 -21 -11 -19 3 -36 6 -39 6 -3 1 6 10 19 20 13 10 19 21
14 24 -5 3 -16 -2 -25 -12z"/>
<path d="M9640 5325 c0 -8 2 -15 4 -15 2 0 6 7 10 15 3 8 1 15 -4 15 -6 0 -10
-7 -10 -15z"/>
<path d="M9657 5306 c-3 -8 0 -17 7 -19 10 -4 12 1 9 14 -6 23 -9 24 -16 5z"/>
<path d="M9698 5293 c7 -3 16 -2 19 1 4 3 -2 6 -13 5 -11 0 -14 -3 -6 -6z"/>
<path d="M9742 5288 c-7 -7 -12 -19 -12 -27 0 -12 -3 -12 -12 -3 -7 7 -19 12
-27 12 -11 0 -10 -3 4 -14 12 -9 16 -19 11 -32 -6 -16 -3 -15 17 5 14 12 27
33 30 47 5 28 5 28 -11 12z"/>
<path d="M9599 5235 c-16 -34 -18 -48 -10 -62 10 -16 11 -15 6 7 -6 28 37 91
52 77 4 -5 1 -13 -8 -17 -18 -10 -26 -115 -10 -138 5 -9 8 12 7 51 -1 67 8 92
24 67 7 -11 10 -6 10 18 0 17 -3 32 -7 33 -5 0 -16 2 -26 4 -13 2 -24 -9 -38
-40z"/>
<path d="M9674 5185 c-10 -8 -14 -14 -9 -14 6 0 19 6 29 14 11 8 15 15 10 15
-6 0 -19 -7 -30 -15z"/>
<path d="M9563 5146 c1 -11 9 -21 17 -23 10 -3 11 -2 4 4 -6 4 -14 15 -17 23
-5 11 -6 9 -4 -4z"/>
<path d="M9570 5080 c0 -5 5 -10 10 -10 6 0 10 5 10 10 0 6 -4 10 -10 10 -5 0
-10 -4 -10 -10z"/>
<path d="M9614 5048 c-7 -22 -7 -22 -15 -3 -5 14 -8 6 -8 -27 -1 -27 3 -48 9
-48 5 0 7 7 3 16 -3 9 -1 19 4 23 10 6 27 61 19 61 -3 0 -8 -10 -12 -22z"/>
<path d="M9564 5046 c-3 -8 -4 -23 -2 -33 3 -11 6 -6 9 15 6 34 2 42 -7 18z"/>
<path d="M9496 5012 c-3 -5 8 -9 24 -10 17 0 30 4 30 9 0 11 -47 12 -54 1z"/>
<path d="M9480 4970 c-9 -6 -25 -51 -22 -62 1 -5 -2 -8 -7 -8 -5 0 -11 -9 -14
-20 -3 -11 -1 -20 4 -20 5 0 9 5 9 10 0 6 9 10 20 10 11 0 20 5 20 11 0 5 5 7
10 4 8 -5 7 -11 -1 -21 -9 -11 -7 -18 11 -32 18 -15 20 -21 10 -27 -8 -5 -11
-4 -7 2 8 13 -39 27 -56 16 -8 -5 -1 -10 18 -14 30 -7 30 -7 3 -8 -17 -1 -32
7 -41 19 -13 19 -15 19 -19 3 -6 -22 18 -83 32 -83 14 0 12 17 -2 23 -7 3 5 6
28 6 55 1 95 21 88 44 -3 9 -1 17 5 17 6 0 14 12 17 28 4 15 12 33 18 41 6 8
7 13 1 10 -54 -27 -65 -34 -65 -48 0 -14 2 -14 10 -1 5 8 10 11 10 5 0 -5 5
-3 10 5 6 9 10 10 10 3 0 -13 -31 -33 -50 -33 -7 0 -9 7 -6 16 3 8 -2 30 -11
47 -14 28 -17 30 -23 13 -4 -14 -9 -16 -14 -8 -4 7 0 22 8 34 l15 21 12 -27
c13 -28 48 -34 56 -9 3 7 -4 10 -19 6 -23 -5 -23 -5 2 16 l25 21 -43 -3 c-24
-1 -47 -4 -52 -7z"/>
<path d="M10825 4900 c-3 -5 1 -10 9 -10 9 0 16 5 16 10 0 6 -4 10 -9 10 -6 0
-13 -4 -16 -10z"/>
<path d="M9723 4893 c9 -2 23 -2 30 0 6 3 -1 5 -18 5 -16 0 -22 -2 -12 -5z"/>
<path d="M9808 4893 c6 -2 18 -2 25 0 6 3 1 5 -13 5 -14 0 -19 -2 -12 -5z"/>
<path d="M10368 4883 c7 -3 16 -2 19 1 4 3 -2 6 -13 5 -11 0 -14 -3 -6 -6z"/>
<path d="M9536 4771 c-4 -6 -13 -8 -20 -5 -8 3 -17 1 -21 -5 -3 -6 1 -11 9
-11 8 0 20 -8 26 -17 11 -17 11 -16 5 1 -3 11 0 23 7 27 7 4 10 11 6 14 -3 4
-9 2 -12 -4z"/>
<path d="M9413 4748 c1 -16 9 -29 20 -32 10 -2 14 0 10 7 -4 6 -1 8 8 5 8 -3
23 -2 34 3 16 6 12 8 -17 8 -24 1 -40 7 -47 18 -7 14 -9 12 -8 -9z"/>
<path d="M9389 4753 c-1 -5 -1 -11 0 -15 0 -5 -4 -7 -10 -5 -6 1 -14 -4 -16
-10 -3 -8 4 -13 16 -13 16 0 21 6 21 25 0 23 -8 36 -11 18z"/>
<path d="M9838 4723 c6 -2 18 -2 25 0 6 3 1 5 -13 5 -14 0 -19 -2 -12 -5z"/>
<path d="M2063 4643 c9 -2 25 -2 35 0 9 3 1 5 -18 5 -19 0 -27 -2 -17 -5z"/>
<path d="M2003 4633 c9 -2 23 -2 30 0 6 3 -1 5 -18 5 -16 0 -22 -2 -12 -5z"/>
<path d="M1728 4613 c6 -2 18 -2 25 0 6 3 1 5 -13 5 -14 0 -19 -2 -12 -5z"/>
<path d="M1338 4603 c7 -3 16 -2 19 1 4 3 -2 6 -13 5 -11 0 -14 -3 -6 -6z"/>
<path d="M1438 4603 c7 -3 16 -2 19 1 4 3 -2 6 -13 5 -11 0 -14 -3 -6 -6z"/>
<path d="M1508 4603 c12 -2 30 -2 40 0 9 3 -1 5 -23 4 -22 0 -30 -2 -17 -4z"/>
<path d="M8123 2453 c9 -2 23 -2 30 0 6 3 -1 5 -18 5 -16 0 -22 -2 -12 -5z"/>
<path d="M7500 2230 c0 -5 5 -10 10 -10 6 0 10 5 10 10 0 6 -4 10 -10 10 -5 0
-10 -4 -10 -10z"/>
<path d="M7643 2223 c9 -2 23 -2 30 0 6 3 -1 5 -18 5 -16 0 -22 -2 -12 -5z"/>
<path d="M7610 2200 c0 -5 5 -10 10 -10 6 0 10 5 10 10 0 6 -4 10 -10 10 -5 0
-10 -4 -10 -10z"/>
<path d="M7645 2200 c-3 -5 -1 -10 4 -10 6 0 11 5 11 10 0 6 -2 10 -4 10 -3 0
-8 -4 -11 -10z"/>
<path d="M7492 2140 c3 -10 20 -16 47 -18 31 -2 41 0 36 8 -4 7 -19 10 -35 7
-15 -3 -33 -1 -40 6 -10 9 -12 9 -8 -3z"/>
<path d="M7310 2053 c-31 -32 -32 -34 -7 -19 15 9 27 12 27 7 0 -6 -8 -15 -17
-20 -16 -9 -16 -12 -3 -21 8 -5 20 -10 25 -10 6 0 4 4 -3 8 -9 6 -7 13 8 30
21 22 27 37 10 27 -6 -4 -7 1 -3 11 5 14 7 14 18 -5 6 -12 14 -18 18 -15 7 7
-21 44 -32 43 -3 0 -22 -16 -41 -36z"/>
<path d="M7460 2070 c0 -5 5 -10 10 -10 6 0 10 5 10 10 0 6 -4 10 -10 10 -5 0
-10 -4 -10 -10z"/>
<path d="M7425 2027 c-10 -8 -14 -17 -9 -20 6 -3 15 3 22 14 14 23 12 24 -13
6z"/>
<path d="M7250 2000 c-13 -9 -12 -12 5 -25 17 -14 20 -13 28 0 8 15 2 35 -11
35 -4 0 -14 -5 -22 -10z m30 -10 c0 -5 -4 -10 -10 -10 -5 0 -10 5 -10 10 0 6
5 10 10 10 6 0 10 -4 10 -10z"/>
<path d="M7335 1970 c-3 -5 1 -10 9 -10 8 0 18 5 21 10 3 6 -1 10 -9 10 -8 0
-18 -4 -21 -10z"/>
<path d="M7175 1910 c-3 -5 1 -10 10 -10 9 0 13 5 10 10 -3 6 -8 10 -10 10 -2
0 -7 -4 -10 -10z"/>
<path d="M7223 1909 c-6 -6 -9 -18 -6 -25 6 -17 -13 -19 -21 -1 -2 6 -4 1 -2
-12 1 -13 11 -30 21 -37 10 -8 14 -14 8 -14 -7 0 -15 5 -18 10 -3 6 -11 10
-17 10 -6 0 -3 -8 8 -18 15 -15 23 -16 36 -8 15 9 15 12 3 19 -19 10 -19 27 0
27 8 0 15 -5 15 -11 0 -5 5 -7 10 -4 6 4 8 11 4 16 -3 6 3 13 15 16 24 6 26
14 9 31 -15 15 -50 16 -65 1z"/>
<path d="M7124 1896 c-3 -7 -20 -22 -39 -31 -22 -12 -31 -24 -27 -33 3 -10 1
-13 -6 -8 -11 6 -68 -28 -60 -36 5 -5 -32 -53 -37 -48 -6 6 -65 -32 -65 -41 0
-3 11 -4 24 -2 23 5 24 3 22 -36 -3 -34 -1 -39 10 -30 11 9 18 8 29 -1 24 -20
19 12 -5 38 -25 27 -26 42 -1 35 11 -3 21 -15 23 -27 4 -27 22 -18 23 11 0 12
3 24 7 28 4 4 4 13 2 20 -3 8 4 19 16 25 11 6 18 16 14 22 -4 5 0 14 7 19 21
13 33 11 20 -4 -8 -11 -5 -17 14 -27 14 -7 25 -19 25 -27 0 -7 5 -13 11 -13 5
0 7 5 3 12 -5 8 -1 9 12 5 17 -6 17 -6 2 5 -9 7 -24 18 -34 24 -10 6 -14 15
-10 22 10 17 46 15 46 -3 0 -8 9 -15 20 -15 32 0 23 17 -17 37 -36 17 -37 18
-13 22 41 5 55 40 18 42 -13 0 -17 3 -10 6 6 2 12 9 12 14 0 14 -30 10 -36 -5z
m-84 -95 c0 -6 -4 -12 -8 -15 -5 -3 -9 1 -9 9 0 8 4 15 9 15 4 0 8 -4 8 -9z"/>
<path d="M6850 1670 c-14 -11 -20 -20 -14 -20 5 0 15 5 22 12 7 7 12 8 12 2 0
-5 -5 -15 -12 -22 -9 -9 -8 -12 5 -12 13 0 17 7 15 30 -1 17 -2 30 -3 30 0 0
-11 -9 -25 -20z"/>
<path d="M6890 1642 c0 -17 8 -32 21 -40 28 -18 39 -6 12 13 -14 10 -19 22
-16 35 3 11 0 20 -6 20 -6 0 -11 -12 -11 -28z"/>
<path d="M6806 1624 c-3 -8 -16 -14 -28 -14 -17 0 -19 -3 -9 -9 10 -6 10 -10
1 -16 -8 -5 -5 -11 9 -22 12 -8 21 -18 21 -24 0 -14 -38 12 -47 33 -7 17 -10
17 -31 3 -12 -9 -20 -21 -16 -26 3 -6 -2 -9 -12 -7 -13 2 -24 -7 -34 -28 -9
-17 -21 -29 -27 -27 -7 3 -9 -4 -5 -19 3 -12 7 -17 10 -10 3 9 7 8 18 -3 8 -8
22 -11 32 -8 14 6 13 8 -8 13 -21 5 -18 7 18 12 24 4 47 9 50 13 12 11 -32 36
-55 32 -13 -2 -23 0 -23 4 0 5 14 9 30 9 20 0 30 5 30 15 0 13 4 14 20 5 11
-6 20 -17 20 -25 0 -36 35 -6 49 42 5 15 12 35 16 44 4 10 0 19 -9 22 -8 3
-17 -1 -20 -9z m2 -69 c-3 -3 -9 2 -12 12 -6 14 -5 15 5 6 7 -7 10 -15 7 -18z
m-128 -65 c0 -5 -5 -10 -11 -10 -5 0 -7 5 -4 10 3 6 8 10 11 10 2 0 4 -4 4
-10z m37 4 c-3 -3 -12 -4 -19 -1 -8 3 -5 6 6 6 11 1 17 -2 13 -5z"/>
<path d="M6858 1609 c-10 -6 -18 -17 -18 -26 0 -14 2 -14 15 3 14 19 14 19 15
-1 0 -17 2 -18 11 -5 8 12 9 8 5 -15 -3 -16 -3 -24 0 -17 3 6 12 12 20 12 20
0 17 13 -8 38 -17 15 -27 18 -40 11z"/>
<path d="M6827 1529 c-32 -35 -32 -49 1 -19 12 12 28 17 39 14 11 -4 14 -3 7
3 -6 4 -13 13 -15 20 -2 7 -15 0 -32 -18z"/>
<path d="M6750 1460 c0 -5 5 -10 10 -10 6 0 10 5 10 10 0 6 -4 10 -10 10 -5 0
-10 -4 -10 -10z"/>
<path d="M6710 1449 c0 -5 5 -7 10 -4 6 3 10 8 10 11 0 2 -4 4 -10 4 -5 0 -10
-5 -10 -11z"/>
<path d="M6519 1418 c-44 -24 -55 -35 -51 -50 3 -14 7 -16 18 -7 8 6 11 15 9
20 -3 4 4 13 15 19 11 6 20 8 20 4 0 -4 9 1 21 12 12 10 24 18 27 16 4 -2 8 1
10 7 5 16 -8 12 -69 -21z"/>
<path d="M6635 1390 c-3 -5 3 -11 12 -13 13 -3 12 -5 -5 -6 -13 0 -32 4 -43
10 -17 9 -20 7 -17 -7 2 -9 -3 -19 -11 -22 -10 -3 -12 1 -8 17 6 26 -7 27 -38
2 -19 -14 -21 -21 -12 -31 10 -10 8 -12 -9 -8 -12 3 -28 2 -35 -3 -10 -6 -8
-9 9 -9 12 0 34 -7 48 -16 13 -9 27 -14 31 -10 3 3 1 6 -5 6 -7 0 -12 4 -12
10 0 6 18 8 43 5 27 -3 37 -2 28 4 -12 7 -11 10 5 14 10 2 1 3 -21 1 l-40 -3
50 15 c90 29 88 28 60 41 -14 6 -27 7 -30 3z"/>
<path d="M6310 1279 c-45 -28 -52 -40 -32 -55 11 -8 19 -9 23 -2 4 6 15 8 25
4 11 -3 26 -1 34 5 12 9 11 10 -4 5 -11 -4 -23 -1 -27 6 -7 11 -12 11 -29 0
-12 -7 -20 -8 -20 -2 0 6 8 14 18 17 9 4 19 10 22 13 3 4 14 12 25 18 11 6 16
12 10 12 -5 0 -26 -10 -45 -21z"/>
<path d="M6435 1290 c3 -5 12 -10 20 -10 8 0 19 -8 25 -17 10 -16 10 -16 8 2
-2 14 2 19 15 17 9 -2 17 2 17 8 0 5 -21 10 -46 10 -27 0 -43 -4 -39 -10z"/>
<path d="M6497 1263 c4 -9 10 -10 24 -2 25 13 24 17 -5 15 -14 0 -22 -6 -19
-13z"/>
<path d="M4930 1250 c-8 -5 -10 -10 -5 -10 6 0 17 5 25 10 8 5 11 10 5 10 -5
0 -17 -5 -25 -10z"/>
<path d="M4983 1227 c0 -8 6 -14 14 -14 9 0 10 4 2 14 -6 7 -12 13 -14 13 -1
0 -2 -6 -2 -13z"/>
<path d="M6216 1215 c-11 -8 -16 -15 -10 -15 5 0 18 7 28 15 11 8 16 15 10 15
-5 0 -18 -7 -28 -15z"/>
<path d="M6260 1210 c0 -5 5 -10 11 -10 5 0 7 5 4 10 -3 6 -8 10 -11 10 -2 0
-4 -4 -4 -10z"/>
<path d="M6240 1196 c0 -2 8 -10 18 -17 15 -13 16 -12 3 4 -13 16 -21 21 -21
13z"/>
<path d="M6290 1190 c0 -5 5 -10 11 -10 5 0 7 5 4 10 -3 6 -8 10 -11 10 -2 0
-4 -4 -4 -10z"/>
<path d="M6208 1183 c7 -3 16 -2 19 1 4 3 -2 6 -13 5 -11 0 -14 -3 -6 -6z"/>
<path d="M5040 1176 c0 -2 7 -7 16 -10 8 -3 12 -2 9 4 -6 10 -25 14 -25 6z"/>
<path d="M6193 1155 c3 -5 14 -9 27 -7 l22 2 -23 -19 c-13 -11 -21 -23 -17
-27 4 -4 14 -2 21 4 17 15 31 3 17 -13 -7 -8 3 -6 24 4 44 20 45 36 4 51 -43
16 -79 18 -75 5z m91 -24 c6 -10 -24 -25 -32 -16 -3 3 0 5 7 5 7 0 9 5 6 10
-3 6 -2 10 4 10 5 0 12 -4 15 -9z"/>
<path d="M6314 1159 c-3 -6 -2 -15 3 -20 5 -5 9 -1 9 11 0 23 -2 24 -12 9z"/>
<path d="M6116 1147 c-26 -19 1 -39 43 -31 46 10 38 25 -11 19 -42 -5 -42 -4
-18 10 14 8 20 14 14 15 -5 0 -18 -6 -28 -13z"/>
<path d="M6150 1100 c0 -6 7 -10 15 -10 8 0 15 2 15 4 0 2 -7 6 -15 10 -8 3
-15 1 -15 -4z"/>
<path d="M6030 1090 c-13 -8 -6 -30 11 -30 6 0 8 4 4 9 -3 5 3 11 12 13 16 3
16 4 2 10 -9 3 -22 3 -29 -2z"/>
<path d="M6103 1080 c-1 -11 2 -20 8 -20 5 0 9 9 9 20 0 11 -4 20 -8 20 -4 0
-8 -9 -9 -20z"/>
<path d="M5964 1045 c-16 -15 -40 -32 -54 -37 -15 -6 -20 -12 -12 -15 6 -3 12
-9 12 -15 0 -6 -7 -7 -16 -4 -8 3 -26 3 -38 0 -27 -6 -30 -44 -4 -44 20 0 23
-21 9 -49 -6 -11 -6 -22 0 -32 9 -12 10 -12 6 1 -3 10 10 20 42 32 25 9 38 17
29 17 -22 1 -24 21 -3 21 8 0 15 5 15 10 0 6 -7 10 -15 10 -8 0 -15 5 -15 10
0 13 37 13 46 -1 3 -6 17 -8 30 -5 14 4 34 1 45 -5 15 -8 19 -8 15 0 -5 7 1
11 15 11 36 0 15 11 -27 13 -21 2 -40 9 -42 17 -3 9 1 11 12 7 9 -4 23 -4 31
-1 14 6 13 8 -1 19 -15 11 -14 13 14 23 41 14 41 28 0 29 -18 0 -40 3 -49 7
-11 5 -26 -2 -45 -19z m46 11 c0 -3 -4 -8 -10 -11 -5 -3 -10 -1 -10 4 0 6 5
11 10 11 6 0 10 -2 10 -4z m-13 -66 c-11 -30 -27 -41 -27 -18 0 10 28 48 36
48 1 0 -3 -13 -9 -30z m-57 0 c0 -5 -4 -10 -10 -10 -5 0 -10 5 -10 10 0 6 5
10 10 10 6 0 10 -4 10 -10z m-52 -32 c-6 -18 -28 -21 -28 -4 0 9 7 16 16 16 9
0 14 -5 12 -12z"/>
<path d="M6180 1060 c0 -5 5 -10 10 -10 6 0 10 5 10 10 0 6 -4 10 -10 10 -5 0
-10 -4 -10 -10z"/>
<path d="M5251 997 c2 -1 13 -9 24 -17 19 -14 19 -14 6 3 -7 9 -18 17 -24 17
-6 0 -8 -1 -6 -3z"/>
<path d="M6088 983 c7 -3 16 -2 19 1 4 3 -2 6 -13 5 -11 0 -14 -3 -6 -6z"/>
<path d="M5280 956 c0 -2 11 -6 25 -8 13 -3 22 -1 19 3 -5 9 -44 13 -44 5z"/>
<path d="M5278 933 c7 -3 16 -2 19 1 4 3 -2 6 -13 5 -11 0 -14 -3 -6 -6z"/>
<path d="M5160 926 c0 -2 7 -7 16 -10 8 -3 12 -2 9 4 -6 10 -25 14 -25 6z"/>
<path d="M5350 915 c0 -8 7 -15 16 -15 14 0 14 3 4 15 -7 8 -14 15 -16 15 -2
0 -4 -7 -4 -15z"/>
<path d="M5288 913 c7 -3 16 -2 19 1 4 3 -2 6 -13 5 -11 0 -14 -3 -6 -6z"/>
<path d="M5220 896 c0 -2 8 -10 18 -17 15 -13 16 -12 3 4 -13 16 -21 21 -21
13z"/>
<path d="M5290 860 c0 -5 5 -10 11 -10 5 0 7 5 4 10 -3 6 -8 10 -11 10 -2 0
-4 -4 -4 -10z"/>
<path d="M5437 853 c4 -11 2 -14 -5 -9 -7 4 -12 2 -12 -3 0 -15 15 -14 29 3 9
10 8 15 -3 19 -11 4 -13 1 -9 -10z"/>
<path d="M5681 851 c-6 -10 -8 -21 -5 -24 3 -3 -4 -3 -16 0 -16 4 -18 8 -8 14
9 6 6 8 -9 6 -15 -1 -19 -5 -13 -13 6 -6 6 -15 2 -19 -4 -5 1 -5 11 -2 12 4
20 1 24 -10 6 -14 7 -14 13 3 4 10 7 22 6 26 0 4 8 14 19 22 17 13 18 15 3 16
-10 0 -22 -8 -27 -19z"/>
<path d="M5460 829 c0 -5 5 -7 10 -4 6 3 10 8 10 11 0 2 -4 4 -10 4 -5 0 -10
-5 -10 -11z"/>
<path d="M5583 803 c0 -17 5 -16 23 1 12 13 12 15 -4 13 -10 0 -19 -7 -19 -14z"/>
<path d="M5760 816 c0 -2 7 -7 16 -10 8 -3 12 -2 9 4 -6 10 -25 14 -25 6z"/>
<path d="M5528 803 c7 -3 16 -2 19 1 4 3 -2 6 -13 5 -11 0 -14 -3 -6 -6z"/>
<path d="M5535 700 c-3 -5 -1 -10 4 -10 6 0 11 5 11 10 0 6 -2 10 -4 10 -3 0
-8 -4 -11 -10z"/>
</g>
</svg>
